# xmcd
#
# Track frame offsets:
#	183
#	19700
#	38758
#	57075
#
# Disc length: 1012 seconds
#
# Revision: 2
# Processed by: cddbd v1.5.2PL0 Copyright (c) Steve Scherf et al.
# Submitted via: audiograbber 1.83.01
#
DISCID=2603f204
DTITLE=The Proclaimers - Fremont
DYEAR=1994
DGENRE=Country
TTITLE0=Let´s Get Married
TTITLE1=Gentle On My Mind (Exclusive Nashville Track)
TTITLE2=Letter From America
TTITLE3=Let´s Get Married (Acoustic)
EXTD=
EXTT0=
EXTT1=
EXTT2=
EXTT3=
PLAYORDER=
